
<svg version="1.0" xmlns="http://www.w3.org/2000/svg"
 width="198.000000pt" height="198.000000pt" viewBox="0 0 198.000000 198.000000"
 preserveAspectRatio="xMidYMid meet">

<g transform="translate(0.000000,198.000000) scale(0.100000,-0.100000)"
fill="#000000" stroke="none">
<path d="M0 990 l0 -990 990 0 990 0 0 990 0 990 -990 0 -990 0 0 -990z m973
599 c20 -17 37 -36 37 -42 0 -7 -88 -100 -195 -207 -107 -107 -195 -199 -195
-205 0 -5 89 -99 197 -207 l198 -198 -43 -42 -42 -43 -215 215 c-118 118 -219
227 -226 242 -6 15 -8 40 -4 55 4 18 84 106 223 246 119 119 219 217 222 217
3 0 22 -14 43 -31z m378 -298 c59 -61 109 -121 111 -135 8 -42 -16 -77 -134
-194 l-114 -112 -39 40 -39 40 97 98 c53 53 97 102 97 107 0 5 -44 54 -97 107
l-97 98 38 39 c29 30 43 38 55 31 9 -4 64 -58 122 -119z m-863 -726 c2 -18 1
-18 -10 -4 -7 9 -20 19 -28 22 -9 4 -5 6 10 4 16 -1 26 -9 28 -22z m218 2 c32
-28 45 -110 22 -140 -11 -15 -13 -10 -10 38 4 52 2 57 -31 90 -39 39 -24 48
19 12z m134 -22 c0 -41 2 -45 33 -54 l32 -10 -40 2 -40 2 1 47 c0 35 -4 48
-15 51 -10 3 -7 5 7 6 20 1 22 -4 22 -44z m143 38 c-7 -2 -21 -2 -30 0 -10 3
-4 5 12 5 17 0 24 -2 18 -5z m110 0 c-7 -2 -21 -2 -30 0 -10 3 -4 5 12 5 17 0
24 -2 18 -5z m77 -13 c22 -22 26 -45 10 -55 -5 -3 -10 2 -10 11 0 10 -10 28
-22 41 -26 28 -6 31 22 3z m220 12 c0 -5 -26 -7 -57 -5 -84 6 -88 11 -10 12
37 1 67 -3 67 -7z m230 -7 c0 -8 -4 -15 -10 -15 -5 0 -10 4 -10 10 0 5 -37 11
-82 13 l-83 3 93 2 c76 2 92 -1 92 -13z m-1170 -85 c46 -27 59 -54 44 -88 -6
-13 -9 -8 -13 18 -5 29 -14 39 -54 60 -47 25 -65 49 -52 71 5 7 12 2 19 -12 6
-12 31 -35 56 -49z m528 -20 c-1 -49 -6 -90 -10 -90 -4 0 -8 41 -8 90 0 53 4
90 10 90 6 0 9 -36 8 -90z m112 56 c0 -19 6 -37 13 -39 6 -3 2 -6 -10 -6 -20
-1 -23 4 -23 39 0 22 5 40 10 40 6 0 10 -15 10 -34z m453 -63 c2 -46 0 -83 -5
-83 -4 0 -8 42 -7 93 1 109 6 105 12 -10z m-230 39 c13 -16 5 -24 -17 -16 -17
7 -20 22 -9 51 7 17 8 17 11 -2 2 -11 9 -26 15 -33z m-740 4 c-7 -45 2 -81 28
-107 29 -29 17 -35 -15 -7 -31 27 -43 80 -27 121 14 37 21 34 14 -7z m797 -21
c0 -8 -4 -15 -10 -15 -5 0 -10 7 -10 15 0 8 5 15 10 15 6 0 10 -7 10 -15z
m-174 -42 c3 -12 1 -30 -5 -40 -9 -15 -10 -14 -11 13 0 17 -7 37 -15 44 -22
19 -18 32 5 18 12 -7 23 -23 26 -35z m-356 -23 c0 -22 -4 -40 -10 -40 -5 0
-10 18 -10 40 0 22 5 40 10 40 6 0 10 -18 10 -40z m252 0 c2 -28 0 -40 -9 -40
-8 0 -13 14 -13 40 0 22 4 40 9 40 5 0 11 -18 13 -40z m238 -31 c21 -7 19 -8
-10 -6 -28 2 -36 6 -38 25 -2 13 0 31 4 40 6 13 9 8 13 -18 5 -25 12 -36 31
-41z m-935 11 c14 -16 15 -20 4 -20 -16 0 -39 19 -39 32 0 14 16 9 35 -12z"/>
</g>
</svg>
