<?xml version="1.0" standalone="no"?>
<!DOCTYPE svg PUBLIC "-//W3C//DTD SVG 20010904//EN"
 "http://www.w3.org/TR/2001/REC-SVG-20010904/DTD/svg10.dtd">
<svg version="1.0" xmlns="http://www.w3.org/2000/svg"
 width="101.000000pt" height="101.000000pt" viewBox="0 0 101.000000 101.000000"
 preserveAspectRatio="xMidYMid meet">

<g transform="translate(0.000000,101.000000) scale(0.100000,-0.100000)"
fill="#a4f2fa" stroke="none">
<path d="M0 505 l0 -505 505 0 505 0 0 505 0 505 -505 0 -505 0 0 -505z m503
444 c20 -17 37 -36 37 -42 0 -7 -88 -100 -195 -207 -107 -107 -195 -199 -195
-205 0 -5 89 -99 197 -207 l198 -198 -43 -42 -42 -43 -215 215 c-118 118 -219
227 -226 242 -6 15 -8 40 -4 55 4 18 84 106 223 246 119 119 219 217 222 217
3 0 22 -14 43 -31z m367 -288 c69 -70 119 -129 122 -144 8 -43 -16 -78 -134
-195 l-114 -112 -39 40 -39 40 97 98 c53 53 97 102 97 107 0 5 -44 54 -97 107
l-97 98 39 40 c21 22 41 40 44 40 3 0 57 -53 121 -119z"/>
</g>
</svg>
